<svg xmlns="http://www.w3.org/2000/svg" version="1.1" xmlns:xlink="http://www.w3.org/1999/xlink" xmlns:svgjs="http://svgjs.dev/svgjs" width="1500" height="939" viewBox="0 0 1500 939"><g transform="matrix(1,0,0,1,-0.9090909090909918,-1.5145161290323017)"><svg viewBox="0 0 396 248" data-background-color="#ffffff" preserveAspectRatio="xMidYMid meet" height="939" width="1500" xmlns="http://www.w3.org/2000/svg" xmlns:xlink="http://www.w3.org/1999/xlink"><g id="tight-bounds" transform="matrix(1,0,0,1,0.2400000000000091,0.4000000000000057)"><svg viewBox="0 0 395.52 247.2" height="247.2" width="395.52"><g><svg></svg></g><g><svg viewBox="0 0 395.52 247.2" height="247.2" width="395.52"><g transform="matrix(1,0,0,1,75.54432,93.88177761174117)"><svg viewBox="0 0 244.43135999999998 59.43644477651766" height="59.43644477651766" width="244.43135999999998"><g><svg viewBox="0 0 244.43135999999998 59.43644477651766" height="59.43644477651766" width="244.43135999999998"><g><svg viewBox="0 0 244.43135999999998 59.43644477651766" height="59.43644477651766" width="244.43135999999998"><g><svg viewBox="0 0 244.43135999999998 59.43644477651766" height="59.43644477651766" width="244.43135999999998"><g id="textblocktransform"><svg viewBox="0 0 244.43135999999998 59.43644477651766" height="59.43644477651766" width="244.43135999999998" id="textblock"><g><svg viewBox="0 0 244.43135999999998 59.43644477651766" height="59.43644477651766" width="244.43135999999998"><g transform="matrix(1,0,0,1,0,0)"><svg width="244.43135999999998" viewBox="3.2499999999999996 -35.9 149.89 36.449999999999996" height="59.43644477651766" data-palette-color="#ffffff"><path d="M7.8-25.35L7.8 0 3.85 0 3.85-25.35 7.8-25.35ZM7.65-35.15Q8.4-34.4 8.4-33.3 8.4-32.2 7.65-31.48 6.9-30.75 5.8-30.75 4.7-30.75 3.98-31.48 3.25-32.2 3.25-33.3 3.25-34.4 3.98-35.15 4.7-35.9 5.8-35.9 6.9-35.9 7.65-35.15ZM35.3-17.45L35.3 0 31.35 0 31.35-16.4Q31.35-19.2 29.92-20.68 28.5-22.15 26.2-22.15L26.2-22.15Q23.35-22.15 21.27-19.95 19.2-17.75 19.2-13.85L19.2-13.85 19.2 0 15.3 0 15.3-25.35 19.2-25.35 19.2-20.95Q21.45-25.7 27.2-25.7L27.2-25.7Q30.9-25.7 33.1-23.45 35.3-21.2 35.3-17.45L35.3-17.45ZM62.65-25.35L53.6 0 48.75 0 39.9-25.35 44-25.35 47.5-14.65 51.2-3.1Q51.65-5.25 54.95-14.65L54.95-14.65 58.55-25.35 62.65-25.35ZM89.84-12.6L89.84-12.6Q89.84-6.95 86.64-3.25 83.44 0.45 77.84 0.45L77.84 0.45Q72.39 0.45 69.22-3.23 66.04-6.9 66.04-12.5L66.04-12.5Q66.04-18.15 69.32-21.93 72.59-25.7 77.84-25.7L77.84-25.7Q83.59-25.7 86.72-22 89.84-18.3 89.84-12.6ZM70.14-12.55L70.14-12.55Q70.14-8.6 72.24-5.83 74.34-3.05 77.84-3.05L77.84-3.05Q81.64-3.05 83.69-5.78 85.74-8.5 85.74-12.55L85.74-12.55Q85.74-16.75 83.79-19.48 81.84-22.2 77.84-22.2L77.84-22.2Q74.24-22.2 72.19-19.4 70.14-16.6 70.14-12.55ZM99.79-25.35L99.79 0 95.84 0 95.84-25.35 99.79-25.35ZM99.64-35.15Q100.39-34.4 100.39-33.3 100.39-32.2 99.64-31.48 98.89-30.75 97.79-30.75 96.69-30.75 95.97-31.48 95.24-32.2 95.24-33.3 95.24-34.4 95.97-35.15 96.69-35.9 97.79-35.9 98.89-35.9 99.64-35.15ZM124.74-4.65L124.74-0.9Q122.34 0.55 118.84 0.55L118.84 0.55Q112.84 0.55 109.31-3.28 105.79-7.1 105.79-12.6L105.79-12.6Q105.79-18 109.31-21.9 112.84-25.8 118.94-25.8L118.94-25.8Q122.19-25.8 124.74-24.4L124.74-24.4 124.74-20.65Q122.44-22.2 119.34-22.2L119.34-22.2Q115.04-22.2 112.46-19.43 109.89-16.65 109.89-12.55L109.89-12.55Q109.94-8.45 112.39-5.73 114.84-3 119.34-3L119.34-3Q122.24-3 124.74-4.65L124.74-4.65ZM153.14-12.6L153.14-12.6Q153.14-6.95 149.94-3.25 146.74 0.45 141.14 0.45L141.14 0.45Q135.69 0.45 132.51-3.23 129.34-6.9 129.34-12.5L129.34-12.5Q129.34-18.15 132.61-21.93 135.89-25.7 141.14-25.7L141.14-25.7Q146.89-25.7 150.01-22 153.14-18.3 153.14-12.6ZM133.44-12.55L133.44-12.55Q133.44-8.6 135.54-5.83 137.64-3.05 141.14-3.05L141.14-3.05Q144.94-3.05 146.99-5.78 149.04-8.5 149.04-12.55L149.04-12.55Q149.04-16.75 147.09-19.48 145.14-22.2 141.14-22.2L141.14-22.2Q137.54-22.2 135.49-19.4 133.44-16.6 133.44-12.55Z" opacity="1" transform="matrix(1,0,0,1,0,0)" fill="#ffffff" class="wordmark-text-0" data-fill-palette-color="primary" id="text-0"></path></svg></g></svg></g></svg></g></svg></g></svg></g></svg></g></svg></g><path d="M197.362 87.882L197.362 29.058 386.447 29.058 386.447 218.142 197.362 218.142 197.362 159.318 202.722 159.318 202.722 212.782 381.087 212.782 381.087 34.418 202.722 34.418 202.722 87.882Z" fill="#ffffff" stroke="transparent" data-fill-palette-color="tertiary"></path></svg></g><defs></defs></svg><rect width="395.52" height="247.2" fill="none" stroke="none" visibility="hidden"></rect></g></svg></g></svg>